<?xml version="1.0" encoding="UTF-8"?>
<!-- Generator: visioncortex VTracer 0.6.12 -->
<svg viewBox="0 0 720 720" version="1.1" xmlns="http://www.w3.org/2000/svg" width="720" height="720">
<path d="M0 0 C22.15870521 -0.49696305 41.89212683 6.45488734 59.2109375 20.12109375 C60.05785156 20.78882813 60.90476562 21.4565625 61.77734375 22.14453125 C78.90125839 36.56184905 88.9551611 58.0704928 91.2109375 80.12109375 C91.55153604 86.72643458 91.4647136 93.34458246 91.43798828 99.95629883 C91.43742312 101.92863458 91.43774278 103.90097076 91.43887329 105.87330627 C91.4394437 111.19058619 91.42774022 116.50777464 91.41372538 121.82503343 C91.40116569 127.39569518 91.4000434 132.96635936 91.39767456 138.53703308 C91.39147512 149.06932889 91.37508521 159.60158285 91.35497558 170.13386029 C91.32837335 184.37783392 91.31763152 198.62181911 91.30597115 212.86581135 C91.28720343 235.28427012 91.24734751 257.70264061 91.2109375 280.12109375 C50.6209375 280.12109375 10.0309375 280.12109375 -31.7890625 280.12109375 C-32.1190625 261.64109375 -32.4490625 243.16109375 -32.7890625 224.12109375 C-49.9490625 223.79109375 -67.1090625 223.46109375 -84.7890625 223.12109375 C-84.85699579 204.88292141 -84.91216954 186.6448528 -84.94449902 168.40658569 C-84.95991455 159.93670089 -84.98090137 151.46690075 -85.01538086 142.99707031 C-85.04544709 135.60777601 -85.06467603 128.21854308 -85.07132798 120.8291893 C-85.07521133 116.92291406 -85.08422433 113.01681426 -85.10625267 109.1105957 C-85.12689131 105.42027354 -85.13284224 101.73019603 -85.12838554 98.03982162 C-85.1295811 96.06762285 -85.14557785 94.09544959 -85.162323 92.12332153 C-85.07773802 67.16610626 -76.65643815 43.62301532 -59.0390625 25.68359375 C-43.03037736 10.0508122 -22.36113548 0.97086162 0 0 Z M-38.7890625 34.12109375 C-39.41425781 34.59289062 -40.03945313 35.0646875 -40.68359375 35.55078125 C-48.2403513 41.58936403 -53.61027431 49.23055705 -58.0390625 57.74609375 C-58.35609131 58.33567871 -58.67312012 58.92526367 -58.99975586 59.53271484 C-67.02006483 75.72493748 -66.32311319 92.7648031 -66.1796875 110.37109375 C-66.16996497 113.08349167 -66.16632897 115.79588895 -66.16253662 118.50830078 C-66.15020031 124.87569346 -66.11750832 131.24280503 -66.07713866 137.610075 C-66.03212624 144.87024375 -66.01036056 152.13042731 -65.99035692 159.39070129 C-65.94876485 174.30101352 -65.87553275 189.21096153 -65.7890625 204.12109375 C-54.5690625 204.12109375 -43.3490625 204.12109375 -31.7890625 204.12109375 C-31.7797168 200.53830566 -31.77037109 196.95551758 -31.76074219 193.26416016 C-31.72693338 181.40968379 -31.67156213 169.55537455 -31.60515976 157.70104408 C-31.56543465 150.51569901 -31.53300919 143.33046242 -31.51806641 136.14501953 C-31.50501583 129.87853273 -31.47796506 123.61228528 -31.43444943 117.34593332 C-31.41191031 114.03116714 -31.39823622 110.71675758 -31.39717865 107.40190506 C-31.39480495 103.69156533 -31.36768984 99.98215205 -31.33496094 96.27197266 C-31.33747612 95.72890472 -31.33747612 95.72890472 -31.35020447 92.98065186 C-31.21751147 83.21957619 -28.83334121 75.57262826 -21.9609375 68.49609375 C-20.7890625 67.12109375 -20.7890625 67.12109375 -20.7890625 65.12109375 C-20.1290625 64.87359375 -19.4690625 64.62609375 -18.7890625 64.37109375 C-15.65663647 63.06591624 -12.67066314 61.57756101 -9.65625 60.0234375 C-2.74037753 56.68124809 6.6930831 57.2283802 14.13671875 58.69921875 C22.90812555 61.77690535 30.08046858 68.25474105 34.2734375 76.49609375 C36.31076813 81.06377452 37.3374783 84.74020045 37.36915588 89.75883484 C37.3789447 90.93252625 37.38873352 92.10621765 37.39881897 93.31547546 C37.40457443 94.60444229 37.4103299 95.89340912 37.41625977 97.22143555 C37.4258391 98.59132177 37.43584922 99.96120504 37.44625854 101.33108521 C37.47330768 105.05184439 37.49431719 108.77261626 37.51426053 112.49341941 C37.53612002 116.38120065 37.56350889 120.2689428 37.59031677 124.1566925 C37.64024415 131.51955081 37.68518282 138.88243082 37.72833914 146.24533159 C37.77771112 154.62737144 37.83262939 163.00937207 37.88801873 171.39137399 C38.00183949 188.63457906 38.10794612 205.87782008 38.2109375 223.12109375 C21.3809375 223.12109375 4.5509375 223.12109375 -12.7890625 223.12109375 C-12.7890625 235.66109375 -12.7890625 248.20109375 -12.7890625 261.12109375 C8.13436637 261.16120256 8.13436637 261.16120256 17.02148438 261.16992188 C23.09660714 261.17591042 29.1717149 261.18301103 35.24682617 261.1965332 C40.14214302 261.20736174 45.03744379 261.21337051 49.93277168 261.21597099 C51.80476701 261.2178253 53.67676141 261.22144603 55.54874992 261.22682381 C58.16134449 261.23403379 60.77387177 261.23508471 63.38647461 261.23461914 C64.16834137 261.23821442 64.95020813 261.24180969 65.75576782 261.24551392 C71.09688534 261.23514591 71.09688534 261.23514591 72.2109375 260.12109375 C72.31463809 257.84911763 72.34617886 255.57385033 72.35137939 253.29951477 C72.35435052 252.57758239 72.35732164 251.85565002 72.3603828 251.1118409 C72.36910768 248.67391434 72.37058129 246.23603667 72.37207031 243.7980957 C72.37669625 242.057138 72.38172061 240.31618132 72.38711548 238.57522583 C72.40027347 233.82862903 72.40669242 229.0820464 72.41112614 224.3354342 C72.41405477 221.36721305 72.41815944 218.39899579 72.42263031 215.4307766 C72.43632159 206.13706171 72.4459771 196.84335569 72.4498322 187.54963142 C72.4543004 176.83673967 72.47178362 166.12397631 72.5008328 155.41112357 C72.52251526 147.1256002 72.53254017 138.84011274 72.53387332 130.55456132 C72.53491776 125.60993057 72.54074691 120.66542023 72.55869293 115.72081947 C72.57528457 111.05787167 72.57727579 106.39513326 72.56855392 101.73216629 C72.56778912 100.03034208 72.57205175 98.32850612 72.58201218 96.62671089 C72.68752786 77.45681289 69.29065886 60.58838914 57.2109375 45.12109375 C56.95570313 44.77755859 56.95570313 44.77755859 55.6640625 43.0390625 C45.28991515 30.02002114 28.32434837 21.7855858 12.0859375 19.43359375 C10.8071875 19.33046875 9.5284375 19.22734375 8.2109375 19.12109375 C7.57414062 19.06824219 6.93734375 19.01539063 6.28125 18.9609375 C-10.20149908 18.24564839 -25.93514041 24.11612124 -38.7890625 34.12109375 Z M-9.5390625 82.18359375 C-12.33865067 85.83861163 -12.91412171 87.31578771 -12.90931702 91.80337524 C-12.91069168 92.7905806 -12.91206635 93.77778595 -12.91348267 94.79490662 C-12.90988739 95.88175247 -12.90629211 96.96859833 -12.90258789 98.08837891 C-12.90273392 99.22983871 -12.90287994 100.37129852 -12.9030304 101.54734802 C-12.90233156 105.33496984 -12.89454048 109.12254298 -12.88671875 112.91015625 C-12.88485447 115.53046644 -12.88343061 118.15077698 -12.88243103 120.77108765 C-12.87932002 126.97236536 -12.87110972 133.17362549 -12.86108154 139.37489545 C-12.84991328 146.43405538 -12.84440815 153.49321614 -12.83938611 160.55238271 C-12.82892692 175.07529676 -12.81058429 189.59819176 -12.7890625 204.12109375 C-2.2290625 204.12109375 8.3309375 204.12109375 19.2109375 204.12109375 C19.27867434 188.95255659 19.33393084 173.78408768 19.36637402 158.61543751 C19.38183877 151.57226456 19.4029207 144.5291923 19.43725586 137.48608398 C19.47036624 130.69097119 19.48778373 123.89596314 19.49556923 117.10077477 C19.50111859 114.50638875 19.5119549 111.91200855 19.52812767 109.31766701 C19.54985781 105.68796975 19.5529062 102.05870676 19.55151367 98.42895508 C19.5622995 97.35289505 19.57308533 96.27683502 19.584198 95.16816711 C19.55468985 88.07496982 18.54228224 84.68557297 13.7109375 79.37109375 C9.62153042 75.69062738 5.90169127 75.83385494 0.64453125 75.91015625 C-4.14195598 76.32503636 -6.54067357 78.70953973 -9.5390625 82.18359375 Z " fill="#B88850" transform="translate(356.7890625,219.87890625)"/>
</svg>
