<?xml version="1.0" encoding="UTF-8"?>
<!-- Generator: visioncortex VTracer 0.6.12 -->
<svg viewBox="0 0 988 296" version="1.1" xmlns="http://www.w3.org/2000/svg" width="988" height="296">
<path d="M0 0 C3.54834368 1.18278123 4.04262985 2.10102601 6.109375 5.12109375 C6.40457031 5.5480957 6.40457031 5.5480957 7.8984375 7.70898438 C8.50945312 8.60939453 9.12046875 9.50980469 9.75 10.4375 C10.04777344 10.87030273 10.04777344 10.87030273 11.5546875 13.06054688 C12.76614239 14.82135198 13.97493068 16.58399448 15.18115234 18.34838867 C20.00831854 25.38568425 24.94561484 32.34663148 29.875 39.3125 C33.52923097 44.48036516 37.15924977 49.66282103 40.75 54.875 C43.4073317 58.72765474 46.10563122 62.53965548 48.875 66.3125 C52.71905045 71.55578481 56.39728411 76.90442952 60.04736328 82.28369141 C62.898943 86.46889583 65.84644701 90.49632225 69.171875 94.32421875 C70.37771571 96.76433981 69.71153924 98.45321016 69 101 C66.43635517 101.10845031 63.87733721 101.18749744 61.3125 101.25 C60.59126953 101.28351563 59.87003906 101.31703125 59.12695312 101.3515625 C55.42707737 101.41914014 53.46636521 101.27981913 50.2265625 99.3359375 C47.05067273 96.00403911 44.6696322 92.30502182 42.16015625 88.4609375 C38.88508693 84.72984587 35.46115308 84.11281108 30.59217834 83.7368927 C29.96986076 83.73442284 29.96986076 83.73442284 26.82055664 83.72192383 C26.47461205 83.71942627 26.47461205 83.71942627 24.72392273 83.70678711 C22.45250292 83.69464999 20.18158956 83.69887776 17.91015625 83.70703125 C17.13005125 83.70866461 16.34994625 83.71029797 15.54620171 83.71198082 C11.4207005 83.72263392 7.29553047 83.74717657 3.17016602 83.78198242 C-1.07819717 83.81471766 -5.32473488 83.79604997 -9.5730505 83.76604176 C-12.8532862 83.75273969 -16.13236671 83.77913613 -19.41238594 83.81604576 C-20.97795334 83.82662792 -22.5437005 83.82219534 -24.10917473 83.80210304 C-36.29598295 83.66524933 -36.29598295 83.66524933 -40.47488403 86.93856812 C-42.28777681 89.22125444 -43.671326 91.41092554 -45 94 C-48.04826717 99.34744535 -48.04826717 99.34744535 -51 101 C-56.62231344 101.85420311 -62.35386604 101.39610962 -68 101 C-68.75 98.8125 -68.75 98.8125 -69 96 C-67.34765625 93.58203125 -67.34765625 93.58203125 -65 91 C-63.46370044 88.90504605 -61.94249516 86.804589 -60.4375 84.6875 C-60.00477783 84.08067383 -59.57205566 83.47384766 -59.1262207 82.84863281 C-55.46305795 77.6927296 -51.89049314 72.47713632 -48.32470703 67.25366211 C-44.73880345 62.02291195 -41.04271012 56.87856813 -37.3125 51.75 C-33.77894698 46.89130066 -30.29645927 42.02449792 -27 37 C-22.08835935 29.51807283 -16.78595021 22.31762325 -11.51708984 15.08544922 C-10.1586645 13.21810624 -8.80610368 11.34676131 -7.45703125 9.47265625 C-6.74933594 8.49167969 -6.04164063 7.51070312 -5.3125 6.5 C-4.71050781 5.6646875 -4.10851562 4.829375 -3.48828125 3.96875 C-2 2 -2 2 0 0 Z M-1 31 C-2.796875 33.0546875 -2.796875 33.0546875 -4.75 35.875 C-5.10255859 36.37837891 -5.10255859 36.37837891 -6.88671875 38.92578125 C-7.58410156 39.94027344 -8.28148437 40.95476562 -9 42 C-10.18687306 43.68794101 -11.37433572 45.37546765 -12.5625 47.0625 C-13.12195313 47.87074219 -13.68140625 48.67898437 -14.2578125 49.51171875 C-15.48103681 51.25879024 -16.72806905 52.98931735 -17.9921875 54.70703125 C-18.63414062 55.58746094 -19.27609375 56.46789062 -19.9375 57.375 C-20.52402344 58.16648437 -21.11054687 58.95796875 -21.71484375 59.7734375 C-23 62 -23 62 -23 66 C-7.49 66 8.02 66 24 66 C24.165 65.67 24.165 65.67 25 64 C20.53898676 57.27721135 15.97792106 50.62500634 11.38085938 43.99462891 C10.50411121 42.72818045 9.63008645 41.45983884 8.75976562 40.18896484 C7.68306099 38.61915143 6.59203711 37.05918632 5.5 35.5 C4.8915625 34.6234375 4.283125 33.746875 3.65625 32.84375 C3.1096875 32.2353125 2.563125 31.626875 2 31 C1.01 31 0.02 31 -1 31 Z " fill="#B88850" transform="translate(697,29)"/>
<path d="M0 0 C3.46920217 0.2612534 4.74632314 0.73174924 7.17578125 3.30078125 C7.88089844 4.29464844 8.58601563 5.28851563 9.3125 6.3125 C9.5069873 6.58312256 9.5069873 6.58312256 10.49121094 7.95263672 C13.68145543 12.42910265 16.69795114 17.0228739 19.71484375 21.6171875 C22.46613282 25.7434978 25.39505071 29.74036433 28.3125 33.75 C32.51749457 39.53103308 36.65711525 45.34578927 40.6875 51.25 C45.28532367 57.98453727 49.98775177 64.63577917 54.74853516 71.25585938 C56.04910542 73.0684372 57.34368317 74.88516552 58.63671875 76.703125 C59.07129395 77.31341553 59.50586914 77.92370605 59.95361328 78.55249023 C60.80642444 79.7514046 61.65770577 80.95140888 62.50732422 82.15258789 C65.23146433 85.98706956 68.07636339 89.68211684 71.13671875 93.25390625 C72.36756865 95.74345334 71.7336987 97.3987046 71 100 C55.0652771 101.03298324 55.0652771 101.03298324 50.75 97.375 C47.60012832 93.89701668 45.0747728 89.97075363 42.83151245 85.85740662 C40.07032056 83.05717663 37.81672833 83.46018122 33.94580078 83.40649414 C33.23162994 83.39133759 32.51745911 83.37618103 31.78164673 83.36056519 C29.41939127 83.31575734 27.05793362 83.29973631 24.6953125 83.28515625 C23.05246185 83.26255336 21.40962868 83.23864496 19.76681519 83.21348572 C16.32193015 83.16511971 12.87726481 83.13062828 9.43212891 83.10620117 C5.02101463 83.07409965 0.61102576 83.01083309 -3.7995739 82.93750858 C-7.19327313 82.88401794 -10.58701313 82.84557279 -13.98096085 82.81179619 C-15.60687582 82.7941077 -17.23275004 82.77212547 -18.85854721 82.74574471 C-21.13486447 82.71138209 -23.41047163 82.69691253 -25.68701172 82.68774414 C-26.9814621 82.67538223 -28.27591248 82.66302032 -29.60958862 82.65028381 C-34.72862342 83.17830509 -37.11988255 84.93420994 -40.3515625 88.84765625 C-41.10179687 89.90855469 -41.85203125 90.96945313 -42.625 92.0625 C-46.70069071 97.80046048 -46.70069071 97.80046048 -50 100 C-52.76655324 100.14245897 -55.42653306 100.18769445 -58.1875 100.125 C-58.93708984 100.11597656 -59.68667969 100.10695313 -60.45898438 100.09765625 C-62.30612654 100.07412578 -64.15310412 100.03825561 -66 100 C-66.77734375 97.9140625 -66.77734375 97.9140625 -67 95 C-65.61229296 92.57226199 -64.26415103 90.55973537 -62.5625 88.375 C-62.09948486 87.75455811 -61.63646973 87.13411621 -61.15942383 86.49487305 C-60.21879558 85.23567888 -59.27213149 83.98096986 -58.31933594 82.73095703 C-56.57828374 80.44671201 -54.87978991 78.13304345 -53.1875 75.8125 C-52.548125 74.93722656 -51.90875 74.06195313 -51.25 73.16015625 C-47.75456359 68.25076727 -44.38827369 63.25397842 -41.00219727 58.26879883 C-37.04656651 52.46854373 -32.9493533 46.79506709 -28.75830078 41.16357422 C-25.45655822 36.69881519 -22.42484724 32.11189751 -19.53515625 27.3671875 C-17.84501336 24.76101297 -15.95037992 22.41732171 -14 20 C-12.30387546 17.70837201 -10.65117267 15.38665063 -9 13.0625 C-8.57460938 12.46759766 -8.14921875 11.87269531 -7.7109375 11.25976562 C-5.06864903 7.55164606 -2.50689413 3.80096216 0 0 Z M1 30 C-0.91846254 32.33736734 -2.721578 34.68387069 -4.5 37.125 C-5.02811279 37.84405518 -5.55622559 38.56311035 -6.1003418 39.30395508 C-7.19495899 40.79694276 -8.28696641 42.29184706 -9.37646484 43.78857422 C-10.91131784 45.87920556 -12.47506432 47.94398732 -14.05078125 50.00390625 C-14.97191872 51.23134737 -15.89251892 52.45919192 -16.8125 53.6875 C-17.25078125 54.25033691 -17.6890625 54.81317383 -18.140625 55.39306641 C-19.33203125 57.01171875 -19.33203125 57.01171875 -21 60 C-20.67 61.65 -20.34 63.3 -20 65 C-4.82 65 10.36 65 26 65 C24.99917707 59.99588533 23.95843123 58.09848149 21.0625 54.0625 C20.66788574 53.50836426 20.27327148 52.95422852 19.86669922 52.38330078 C19.0238357 51.20144159 18.17737273 50.02214252 17.32763672 48.84521484 C15.96692331 46.95402839 14.62428722 45.05104985 13.28515625 43.14453125 C12.39880812 41.88775937 11.51209856 40.6312423 10.625 39.375 C10.41685669 39.07920044 10.41685669 39.07920044 9.36352539 37.58227539 C5.33228366 31.92311109 5.33228366 31.92311109 3 30 C2.34 30 1.68 30 1 30 Z " fill="#B88850" transform="translate(433,30)"/>
<path d="M0 0 C0.51820313 0.13921875 0.51820313 0.13921875 3.140625 0.84375 C13.16735715 3.82606007 22.28344974 8.92649559 30 16 C29.48118887 20.1724106 28.28848726 22.25416821 25.4375 25.3125 C24.79683594 26.00988281 24.15617187 26.70726563 23.49609375 27.42578125 C23.00238281 27.94527344 22.50867188 28.46476562 22 29 C18.16950352 28.50667848 15.29723533 27.1897178 11.94018555 25.3203125 C-5.35173819 15.78114128 -26.19466992 11.82843311 -45.625 16.25 C-57.35433568 19.72778904 -65.81605124 24.14232133 -72 35 C-75.20723669 42.61887873 -74.89010389 52.23876944 -71.87109375 59.84375 C-68.64060914 65.6885505 -64.73124496 69.62303968 -59 73 C-58.36835938 73.37769531 -57.73671875 73.75539063 -57.0859375 74.14453125 C-40.5366895 82.67474209 -19.29972141 80.98675243 -2 76 C4.64595676 73.66493411 11.90667446 71.09332554 17 66 C19.2890625 65.67578125 19.2890625 65.67578125 22 66 C24.2734375 67.79296875 24.2734375 67.79296875 26.375 70.1875 C27.08398438 70.96480469 27.79296875 71.74210937 28.5234375 72.54296875 C30 75 30 75 30.00390625 77.58203125 C27.32033275 84.04557987 17.91535066 87.96267071 11.83203125 90.875 C6.06397801 93.16630942 0.04473868 94.63298938 -6 96 C-6.75240967 96.17877686 -7.50481934 96.35755371 -8.2800293 96.54174805 C-27.84276139 100.88620653 -52.31226128 99.45517692 -70.01171875 89.30078125 C-70.66785156 88.87152344 -71.32398438 88.44226563 -72 88 C-72.68707031 87.56042969 -73.37414062 87.12085937 -74.08203125 86.66796875 C-83.86504733 79.87784478 -92.01460059 69.89841662 -94.6484375 58.09375 C-96.13151744 45.04264654 -95.60984254 32.98175824 -88 22 C-85.16663662 18.49152002 -82.15756168 15.21796721 -79 12 C-78.71705078 11.70480469 -78.71705078 11.70480469 -77.28515625 10.2109375 C-59.11891068 -7.11139935 -22.34885739 -6.44892402 0 0 Z " fill="#B88850" transform="translate(330,34)"/>
<path d="M0 0 C1.15177734 -0.01224609 2.30355469 -0.02449219 3.49023438 -0.03710938 C18.47504055 -0.06232217 40.64329299 1.38761336 52.6328125 11.63671875 C53.9375 13.1875 53.9375 13.1875 54 15.9375 C52.57646271 20.29184935 50.03994163 22.91202265 46.9375 26.1875 C40.03479738 24.73230803 33.2825603 22.92655406 26.51171875 20.95507812 C17.38116995 18.35420751 8.58900346 17.92145242 -0.875 17.8125 C-2.09509766 17.77511719 -3.31519531 17.73773438 -4.57226562 17.69921875 C-12.14854242 17.62593934 -19.02336965 18.15867382 -25.0625 23.1875 C-27.34788694 27.5088172 -26.99502254 30.43163502 -26.0625 35.1875 C-16.42020827 38.56923901 -6.90885846 38.87055177 3.1875 39.25 C44.16100471 40.89474028 44.16100471 40.89474028 55.0625 52.4375 C59.94267929 59.59509629 62.33104018 65.3453026 60.9375 74.1875 C58.02137299 83.28527873 51.78712424 90.30065668 43.5 94.9375 C20.06786285 105.33220746 -8.99149763 103.76288694 -32.77270508 95.21313477 C-46.85253154 89.72408232 -46.85253154 89.72408232 -51.0625 84.1875 C-50.82100241 80.88703298 -49.211053 78.57981604 -47.3125 75.9375 C-47.06757812 75.58429688 -47.06757812 75.58429688 -45.828125 73.796875 C-44.0625 72.1875 -44.0625 72.1875 -41.640625 71.8125 C-38.80486384 72.22497435 -37.046517 73.02535335 -34.5625 74.4375 C-17.12690926 83.52763126 4.73393729 86.75585988 23.875 82.4375 C24.57302734 82.28079834 25.27105469 82.12409668 25.99023438 81.96264648 C31.43014031 80.60201805 37.32368429 78.74270821 40.4375 73.8125 C41.05305497 70.58083643 40.83153459 68.35100702 39.9375 65.1875 C37.73687944 62.43502103 35.6611973 61.52990144 32.3125 60.5625 C31.51585937 60.32273438 30.71921875 60.08296875 29.8984375 59.8359375 C22.98438471 58.32177818 16.07464273 58.09118622 9.01733398 57.94848633 C-0.79755843 57.72773742 -10.43937236 57.15152047 -20.125 55.5 C-20.56114624 55.43180054 -20.56114624 55.43180054 -22.76831055 55.08666992 C-31.21017116 53.49885658 -38.63827664 48.8880112 -44.0625 42.1875 C-47.10904967 36.36575326 -48.06438253 31.00823847 -46.37109375 24.55078125 C-43.34764014 15.27801348 -39.13915854 9.70737239 -30.4296875 5.25 C-20.35801879 0.72938302 -10.94401921 0.00598361 0 0 Z " fill="#B88850" transform="translate(563.0625,30.8125)"/>
<path d="M0 0 C2.69303793 2.12865539 5.06974164 4.31837612 7.3671875 6.87109375 C7.88410156 7.39574219 8.40101563 7.92039062 8.93359375 8.4609375 C24.32290345 24.74537483 27.51299743 44.38427202 27.52832031 66.02026367 C27.53295523 67.55025856 27.53798079 69.08025231 27.54336548 70.61024475 C27.55641759 74.74633805 27.56291909 78.88241519 27.56737614 83.01852584 C27.5703156 85.60429013 27.5744218 88.19005007 27.57888031 90.77581215 C27.59252982 98.87186606 27.60221164 106.96790995 27.6060822 115.06397456 C27.6105714 124.40098155 27.62816974 133.73784278 27.6570828 143.07480544 C27.67868563 150.30216432 27.68878556 157.52948212 27.69012332 164.75687295 C27.69117139 169.07010636 27.69708086 173.38320225 27.71494293 177.6964016 C27.73140178 181.74876675 27.73358989 185.80089058 27.72480392 189.85327721 C27.72403265 191.33958075 27.72838815 192.82589718 27.73826218 194.31216812 C27.75095564 196.34183637 27.74332264 198.37160135 27.73468018 200.40129089 C27.73614674 201.53668902 27.7376133 202.67208715 27.7391243 203.84189129 C27.31577712 207.28980053 26.54911449 209.17466564 24.3671875 211.87109375 C22.50436306 212.48912621 22.50436306 212.48912621 20.37535095 212.47909546 C19.56635849 212.48741394 18.75736603 212.49573242 17.92385864 212.50430298 C17.04011566 212.48789764 16.15637268 212.47149231 15.24584961 212.45458984 C14.31228134 212.45692627 13.37871307 212.4592627 12.41685486 212.46166992 C9.32551491 212.4632872 6.23566004 212.42922444 3.14453125 212.39453125 C1.00127196 212.3877444 -1.14199478 212.38302066 -3.28526306 212.38027954 C-7.7786927 212.36959232 -12.27162617 212.34286661 -16.76489258 212.30322266 C-22.53444157 212.25232415 -28.30370529 212.22721243 -34.07344913 212.212286 C-39.56332888 212.19751602 -45.05314101 212.17227188 -50.54296875 212.14453125 C-51.59608812 212.13962048 -52.6492075 212.1347097 -53.73423958 212.12965012 C-56.70319153 212.11342336 -59.6719891 212.09001933 -62.64086914 212.06396484 C-63.08375275 212.06183487 -63.08375275 212.06183487 -65.32501221 212.05105591 C-71.40256202 211.98621899 -71.40256202 211.98621899 -73.6328125 210.87109375 C-74.51979813 208.21013687 -74.77342434 206.60707175 -74.82226562 203.87451172 C-74.83898315 203.07713593 -74.85570068 202.27976013 -74.8729248 201.45822144 C-74.88650024 200.60189117 -74.90007568 199.74556091 -74.9140625 198.86328125 C-74.93247192 197.98205597 -74.95088135 197.10083069 -74.96984863 196.19290161 C-75.04859083 192.41925264 -75.11646654 188.64542706 -75.18505859 184.87158203 C-75.2366422 182.11872132 -75.29393067 179.36602088 -75.3515625 176.61328125 C-75.36513794 175.75290253 -75.37871338 174.8925238 -75.3927002 174.006073 C-75.51996449 167.98394176 -75.51996449 167.98394176 -76.6328125 166.87109375 C-79.49201605 166.73555847 -82.33046001 166.66048261 -85.19140625 166.625 C-86.95638525 166.59206608 -88.72135909 166.55885436 -90.48632812 166.52539062 C-93.28227219 166.47791001 -96.07819462 166.43348326 -98.87426758 166.39428711 C-101.56353815 166.35467972 -104.25237332 166.3031106 -106.94140625 166.25 C-107.78102402 166.24158585 -108.62064178 166.23317169 -109.48570251 166.22450256 C-115.40613898 166.09776727 -115.40613898 166.09776727 -117.6328125 163.87109375 C-117.89008141 161.89489746 -117.89008141 161.89489746 -117.90023804 159.42382812 C-117.90876801 158.48787811 -117.91729797 157.5519281 -117.92608643 156.58761597 C-117.92563324 156.07235855 -117.92563324 156.07235855 -117.92333984 153.46484375 C-117.93005707 152.38155792 -117.93677429 151.29827209 -117.94369507 150.18215942 C-117.96278248 146.57842482 -117.96660658 142.97487587 -117.96875 139.37109375 C-117.9751773 136.86116459 -117.9819056 134.35123618 -117.98892212 131.84130859 C-118.00092648 126.56182827 -118.00468595 121.28241699 -118.00341797 116.00292969 C-118.00235642 110.61023037 -118.01626596 105.21782023 -118.04443359 99.82519531 C-118.07802218 93.29999078 -118.09152044 86.77504455 -118.09019852 80.24975586 C-118.09254001 77.77496887 -118.1012804 75.30017849 -118.11686325 72.82543945 C-118.2554489 48.51176782 -115.78906952 26.38192939 -99.16796875 7.39453125 C-70.80288169 -20.8394383 -31.73171014 -23.77630972 0 0 Z M-75.6328125 9.87109375 C-76.38304688 10.40863281 -77.13328125 10.94617188 -77.90625 11.5 C-89.58143023 20.16911223 -97.8185169 32.40994405 -100.6328125 46.87109375 C-101.4763608 52.95792884 -101.78154153 58.95137894 -101.77807617 65.09106445 C-101.78143478 65.96377487 -101.7847934 66.83648529 -101.78825378 67.73564148 C-101.79767079 70.58940086 -101.79970148 73.4431011 -101.80078125 76.296875 C-101.80399775 78.29225183 -101.80736212 80.28762842 -101.81086731 82.28300476 C-101.81683354 86.44949898 -101.81870954 90.61597252 -101.81811523 94.7824707 C-101.81801317 100.12345118 -101.83172177 105.46430004 -101.84888744 110.80524921 C-101.85999155 114.91872266 -101.86203502 119.03216396 -101.86150551 123.14565086 C-101.86268585 125.11564784 -101.86711065 127.08564565 -101.87483788 129.05562782 C-101.88461561 131.8032124 -101.88176967 134.55050663 -101.87573242 137.2980957 C-101.88135193 138.11114166 -101.88697144 138.92418762 -101.89276123 139.76187134 C-101.86943465 143.93150512 -101.54528382 146.0461511 -99.6328125 149.87109375 C-91.7128125 149.87109375 -83.7928125 149.87109375 -75.6328125 149.87109375 C-73.98084901 146.56716678 -74.47956119 142.88236101 -74.47509766 139.24975586 C-74.47001694 138.35683838 -74.46493622 137.4639209 -74.45970154 136.54394531 C-74.448983 134.59980698 -74.44036867 132.6556562 -74.43358231 130.71150017 C-74.42180357 127.62974976 -74.40235063 124.54814015 -74.38046265 121.46644592 C-74.31883122 112.70236943 -74.26490152 103.93830509 -74.23144531 95.17407227 C-74.21043931 89.81592837 -74.17508162 84.45803742 -74.13068771 79.10003853 C-74.11656701 77.06164095 -74.10781419 75.02319857 -74.10463333 72.98475456 C-74.09969636 70.12230072 -74.07646451 67.26051107 -74.04931641 64.39819336 C-74.05232254 63.56407425 -74.05532867 62.72995514 -74.0584259 61.87055969 C-73.94282753 53.61726643 -71.80535396 46.41283736 -66.6328125 39.87109375 C-58.49755836 32.57022465 -51.96584823 31.47555151 -41.2734375 31.65625 C-33.97909663 32.08671003 -30.0219427 35.23393521 -24.6328125 39.87109375 C-23.9728125 39.87109375 -23.3128125 39.87109375 -22.6328125 39.87109375 C-22.49875 40.21140625 -22.49875 40.21140625 -21.8203125 41.93359375 C-20.93138763 44.13251317 -20.00914045 46.31801292 -19.0703125 48.49609375 C-17.42173598 52.3666647 -16.50776271 55.20282353 -16.51255798 59.36991882 C-16.51187065 59.83055222 -16.51187065 59.83055222 -16.50839233 62.16163635 C-16.51018997 62.66585869 -16.51018997 62.66585869 -16.51928711 65.2175293 C-16.51914108 66.28110657 -16.51899506 67.34468384 -16.5188446 68.44049072 C-16.51954238 71.96295192 -16.52732849 75.48536052 -16.53515625 79.0078125 C-16.53702091 81.44733145 -16.53844459 83.88685078 -16.53944397 86.32637024 C-16.54326537 92.7527062 -16.55309246 99.17901963 -16.56414795 105.60534668 C-16.57437017 112.16072281 -16.57894333 118.71610258 -16.58398438 125.27148438 C-16.59471504 138.13803046 -16.61159522 151.00456091 -16.6328125 163.87109375 C-19.89782629 165.50360065 -23.51375166 165.09271734 -27.10546875 165.15234375 C-27.94371689 165.17075317 -28.78196503 165.1891626 -29.64561462 165.20812988 C-33.24090572 165.28696839 -36.83638686 165.35469531 -40.43188477 165.42333984 C-43.05234412 165.47493953 -45.67263586 165.53223081 -48.29296875 165.58984375 C-48.70285286 165.59663147 -48.70285286 165.59663147 -50.77711487 165.63098145 C-56.51998644 165.75826769 -56.51998644 165.75826769 -57.6328125 166.87109375 C-57.88661484 171.34441333 -57.81803971 175.82892835 -57.8203125 180.30859375 C-57.82643555 180.9418457 -57.82643555 180.9418457 -57.85742188 184.14648438 C-57.85935547 185.35369141 -57.86128906 186.56089844 -57.86328125 187.8046875 C-57.86739014 188.91900146 -57.87149902 190.03331543 -57.87573242 191.18139648 C-57.6328125 193.87109375 -57.6328125 193.87109375 -55.6328125 195.87109375 C-53.06546021 196.12506104 -53.06546021 196.12506104 -49.77783203 196.12988281 C-48.54960724 196.13618713 -47.32138245 196.14249146 -46.05593872 196.14898682 C-44.70916603 196.14540634 -43.36239464 196.1413042 -42.015625 196.13671875 C-40.63800996 196.13806578 -39.26039539 196.14000662 -37.88278198 196.14251709 C-34.99260949 196.14546858 -32.1025605 196.14117134 -29.21240234 196.13183594 C-25.51120181 196.12046263 -21.81029202 196.12698704 -18.10910225 196.13898087 C-15.26262229 196.14621712 -12.41621091 196.14390308 -9.56972885 196.13872528 C-8.20540202 196.13739255 -6.84106894 196.13902331 -5.47674942 196.14368439 C-3.56669487 196.14877592 -1.65661846 196.13963672 0.25341797 196.12988281 C1.33992645 196.12829163 2.42643494 196.12670044 3.54586792 196.12506104 C6.38329098 195.86964416 7.90233565 195.20123059 10.3671875 193.87109375 C10.48443219 175.12873204 10.57237581 156.38644563 10.62624836 137.64379215 C10.65193671 128.93956746 10.68690592 120.23557176 10.74438477 111.53149414 C10.79450895 103.93746426 10.82654644 96.34360035 10.83762997 88.74940962 C10.84410014 84.73510027 10.85910616 80.72126541 10.89583778 76.70710945 C11.21473714 40.40525218 11.21473714 40.40525218 1.3671875 23.87109375 C0.7071875 23.87109375 0.0471875 23.87109375 -0.6328125 23.87109375 C-0.89449219 23.2884375 -1.15617187 22.70578125 -1.42578125 22.10546875 C-6.41519494 12.86940198 -17.06548312 6.57582031 -26.46875 2.703125 C-42.75146166 -2.1543226 -61.86716662 -0.35400535 -75.6328125 9.87109375 Z M-53.6328125 48.87109375 C-57.90972736 54.002553 -58.19388268 57.80371025 -58.08691406 64.18115234 C-58.08749817 65.09886414 -58.08808228 66.01657593 -58.08868408 66.96209717 C-58.08590753 69.98163275 -58.05483553 73.00016908 -58.0234375 76.01953125 C-58.01597359 78.11845358 -58.01028137 80.2173829 -58.00628662 82.3163147 C-57.99104216 87.83037688 -57.95177024 93.34401505 -57.9074707 98.85791016 C-57.86649257 104.48854843 -57.84827015 110.11925547 -57.828125 115.75 C-57.78527512 126.79055048 -57.7170379 137.8307868 -57.6328125 148.87109375 C-54.29810319 150.2674442 -51.90474021 151.11901404 -48.27734375 150.91796875 C-47.88385742 150.89669922 -47.88385742 150.89669922 -45.89257812 150.7890625 C-45.08498047 150.73363281 -44.27738281 150.67820312 -43.4453125 150.62109375 C-42.62611328 150.58113281 -41.80691406 150.54117188 -40.96289062 150.5 C-34.89196702 150.13024827 -34.89196702 150.13024827 -32.6328125 147.87109375 C-32.42347794 144.95072977 -32.33918001 142.12445054 -32.34228516 139.20214844 C-32.33556793 138.30441208 -32.32885071 137.40667572 -32.32192993 136.48173523 C-32.30287108 133.50209067 -32.29902137 130.52267054 -32.296875 127.54296875 C-32.2904511 125.47511705 -32.28372305 123.40726627 -32.27670288 121.3394165 C-32.26470935 116.9982289 -32.26102404 112.65712098 -32.26220703 108.31591797 C-32.26241 102.75618091 -32.23513934 97.19695627 -32.20066261 91.63734055 C-32.17840724 87.36333883 -32.17436912 83.08946052 -32.17542648 78.8154068 C-32.17306726 76.76610808 -32.16422571 74.71680612 -32.14876175 72.66756439 C-32.12913548 69.79721956 -32.13492741 66.92798035 -32.14697266 64.05761719 C-32.14135315 63.63516472 -32.14135315 63.63516472 -32.11291504 61.49729919 C-32.16978124 56.15655304 -33.08649274 53.11088328 -36.6328125 48.87109375 C-42.09547592 45.32857706 -48.29795482 44.9299248 -53.6328125 48.87109375 Z " fill="#B88850" transform="translate(141.6328125,52.12890625)"/>
<path d="M0 0 C1.32 0 2.64 0 4 0 C5.42871094 1.4777832 5.42871094 1.4777832 6.734375 3.55078125 C7.22172119 4.30633301 7.70906738 5.06188477 8.21118164 5.84033203 C8.46508667 6.24823975 8.46508667 6.24823975 9.75 8.3125 C10.82507932 9.98419552 11.90189828 11.65477357 12.98046875 13.32421875 C13.50044434 14.13552246 14.02041992 14.94682617 14.55615234 15.78271484 C16.30324331 18.46568409 18.15498161 21.05399695 20.0625 23.625 C23.76825132 28.63277205 27.29439068 33.75133775 30.79321289 38.90478516 C33.41581982 42.75180046 36.10784715 46.53792257 38.85546875 50.296875 C42.93598347 55.88387841 46.88335045 61.55596013 50.8125 67.25 C55.99335495 74.7497078 61.21835798 82.19707417 66.8137207 89.39550781 C69.18980747 92.53255746 70.72005887 95.02340039 71 99 C68.89674615 101.10325385 64.63412352 100.32256139 61.75 100.375 C60.98558594 100.41238281 60.22117187 100.44976562 59.43359375 100.48828125 C55.61762328 100.54759685 53.60883491 100.43888406 50.453125 98.1640625 C48.81483435 96.31615609 47.76340769 94.54385617 46.61894226 92.33735657 C43.86813636 87.55066578 41.80967429 84.52470323 36.36727905 82.94671631 C31.81709188 82.38582443 27.26795857 82.44162348 22.69140625 82.50390625 C20.99802101 82.49394081 19.30465152 82.48086207 17.61131287 82.46482849 C14.07073653 82.44415907 10.5332173 82.46350862 6.99291992 82.51098633 C2.4735384 82.5680482 -2.03781282 82.5216272 -6.55665493 82.44448948 C-10.0515472 82.39702559 -13.54455294 82.40677802 -17.03959846 82.43314934 C-18.7040604 82.43860521 -20.36868706 82.42621955 -22.03286552 82.39502144 C-34.99002663 82.1977757 -34.99002663 82.1977757 -39.93899536 86.63522339 C-42.29118255 89.55783934 -44.09639026 92.77226874 -46 96 C-49.46163132 99.87865175 -49.46163132 99.87865175 -52.01464844 100.45410156 C-52.7059082 100.4331543 -53.39716797 100.41220703 -54.109375 100.390625 C-54.86347656 100.37773437 -55.61757813 100.36484375 -56.39453125 100.3515625 C-57.17183594 100.31804687 -57.94914063 100.28453125 -58.75 100.25 C-59.54277344 100.23195313 -60.33554687 100.21390625 -61.15234375 100.1953125 C-63.10208348 100.14833082 -65.05119878 100.07659044 -67 100 C-67.703125 97.76953125 -67.703125 97.76953125 -68 95 C-66.734375 92.88671875 -66.734375 92.88671875 -64.75 90.6875 C-61.06926338 86.3719325 -57.79747351 81.94098455 -54.625 77.25 C-51.14194661 72.12217139 -47.6232002 67.02989685 -44 62 C-40.39015094 56.98288508 -36.86314144 51.91494321 -33.375 46.8125 C-29.65522205 41.3723732 -25.85417265 36.00771478 -21.953125 30.6953125 C-19.02631601 26.6563161 -16.21289721 22.5406679 -13.3828125 18.43359375 C-10.78848451 14.68198129 -8.1493913 10.96286593 -5.5 7.25 C-5.0663916 6.64115967 -4.6327832 6.03231934 -4.18603516 5.4050293 C-1.12411839 1.12411839 -1.12411839 1.12411839 0 0 Z M-1.5 32.37109375 C-1.995 33.05300781 -2.49 33.73492187 -3 34.4375 C-3.29712891 34.84162109 -3.29712891 34.84162109 -4.80078125 36.88671875 C-5.52652344 37.91410156 -6.25226562 38.94148438 -7 40 C-7.47099121 40.66467285 -7.94198242 41.3293457 -8.42724609 42.01416016 C-10.53803977 44.99422128 -12.64708259 47.97523702 -14.73632812 50.97045898 C-15.22939453 51.67630127 -15.72246094 52.38214355 -16.23046875 53.109375 C-16.7001709 53.78419922 -17.16987305 54.45902344 -17.65380859 55.15429688 C-19 57 -19 57 -21.42578125 59.765625 C-21.94527344 60.50296875 -22.46476563 61.2403125 -23 62 C-22.67 63.32 -22.34 64.64 -22 66 C-6.49 66 9.02 66 25 66 C25.33 65.01 25.66 64.02 26 63 C24.74726803 60.86334523 23.47758084 58.97259627 22 57 C21.79334717 56.71745361 21.79334717 56.71745361 20.74755859 55.28759766 C19.40267148 53.45614364 18.04602158 51.63385876 16.6875 49.8125 C12.60928655 44.33705162 8.91506555 38.81751927 5.53515625 32.87890625 C5.02855469 32.25886719 4.52195312 31.63882813 4 31 C0 31 0 31 -1.5 32.37109375 Z " fill="#B88850" transform="translate(579,169)"/>
<path d="M0 0 C1.17771973 0.00491455 2.35543945 0.0098291 3.56884766 0.01489258 C22.83622165 0.27311512 42.71435614 5.12867004 58.4375 16.875 C60.6875 19.3125 60.6875 19.3125 61.4375 21.6875 C60.26586872 25.78820947 57.8339659 28.49566386 54.6875 31.3125 C52.25 32.5625 52.25 32.5625 49.6875 32.3125 C47.94666976 31.16289512 46.21159279 29.99759179 44.56640625 28.71484375 C31.96295224 19.3081078 15.40702062 17.95671896 0.25 18 C-0.31235352 17.99194336 -0.31235352 17.99194336 -3.15820312 17.95117188 C-16.15558144 17.94370641 -28.65505175 20.06036092 -38.37890625 29.26953125 C-45.26780812 36.79123413 -47.6557215 43.97690168 -47.453125 54.08984375 C-46.97141917 61.70347203 -43.6966477 67.10752527 -38.3125 72.3125 C-24.82638481 82.28828507 -7.04502117 87.61813144 9.6875 85.3125 C22.85064701 82.97498539 36.69340875 78.68757959 44.69921875 67.3046875 C45.84216386 65.000727 46.22267474 62.83213778 46.6875 60.3125 C45.40061279 60.29268066 44.11372559 60.27286133 42.7878418 60.25244141 C38.01859793 60.17643595 33.24966119 60.08771076 28.48071289 59.99511719 C26.41567035 59.95680652 24.3505606 59.92195734 22.28540039 59.890625 C19.31892862 59.84501986 16.3529204 59.78701799 13.38671875 59.7265625 C12.4616301 59.71501129 11.53654144 59.70346008 10.5834198 59.69155884 C9.72275406 59.67168915 8.86208832 59.65181946 7.9753418 59.63134766 C7.59672752 59.62468582 7.59672752 59.62468582 5.68070984 59.5909729 C3.6875 59.3125 3.6875 59.3125 0.6875 57.3125 C0.32421875 54.81640625 0.32421875 54.81640625 0.375 51.875 C0.37886719 50.90691406 0.38273437 49.93882812 0.38671875 48.94140625 C0.6875 46.3125 0.6875 46.3125 2.6875 43.3125 C5.34423828 42.9382782 5.34423828 42.9382782 8.7578125 42.94018555 C9.39517334 42.93707115 9.39517334 42.93707115 12.62060547 42.92131042 C14.0179076 42.92999824 15.41520594 42.93931619 16.8125 42.94921875 C18.23974609 42.94973721 19.6669929 42.94922006 21.09423828 42.94770813 C24.08702235 42.94779791 27.07953736 42.95823885 30.07226562 42.97631836 C33.91268206 42.99900599 37.75270517 42.99955036 41.59317017 42.99280071 C44.54080718 42.98946269 47.48835417 42.99608761 50.43597412 43.00592995 C51.85218841 43.00978515 53.2684127 43.01092884 54.68463135 43.0093441 C56.66217285 43.00897416 58.63970125 43.02305471 60.6171875 43.0378418 C61.74366699 43.04244919 62.87014648 43.04705658 64.03076172 43.05180359 C66.6875 43.3125 66.6875 43.3125 68.6875 45.3125 C70.00640327 56.82166646 68.6760829 67.58956865 61.59765625 77.12890625 C59.39516815 79.65517893 57.10884289 81.99680035 54.6875 84.3125 C54.14480469 84.87453125 53.60210937 85.4365625 53.04296875 86.015625 C38.70342172 99.81063227 15.9906163 103.1133867 -2.99316406 102.90209961 C-20.97036503 102.25886591 -40.5216214 97.54301296 -54.3125 85.3125 C-66.27879419 72.31706415 -68.93334781 61.54102667 -68.3125 44.3125 C-67.55254062 34.50610112 -61.6856574 25.56063634 -55.3125 18.3125 C-38.60187644 4.57037924 -21.46244061 -0.10692479 0 0 Z " fill="#B88850" transform="translate(303.3125,169.6875)"/>
<path d="M0 0 C2.1875 2.5 2.1875 2.5 2.4375 5.375 C0.81110332 9.44099169 -1.3757604 12.73996355 -4.8125 15.5 C-7.24609375 16.3671875 -7.24609375 16.3671875 -9.8125 16.5 C-11.98828125 15.42578125 -11.98828125 15.42578125 -14.125 13.8125 C-25.17118286 5.99714513 -38.24837775 2.09537178 -51.8125 1.5 C-52.54984375 1.46003906 -53.2871875 1.42007813 -54.046875 1.37890625 C-68.47792045 0.97804388 -81.54062779 3.28502777 -93.1015625 12.28125 C-98.95923049 18.16384424 -101.47059651 26.26678324 -102.00390625 34.4296875 C-101.60469911 42.97030096 -98.42166267 50.35941704 -92.25 56.3125 C-80.97864595 65.18347309 -64.53525983 68.52144058 -50.38818359 67.13745117 C-38.00962001 65.5237044 -25.06033584 62.78832175 -14.5625 55.75 C-12.15146088 54.20867439 -10.56921138 53.43545404 -7.75 52.6875 C-3.6622544 53.81815304 -1.8002629 56.14436922 0.96484375 59.26171875 C2.1875 61.5 2.1875 61.5 2.12890625 64.01953125 C-0.10022176 69.89295982 -5.23218219 71.99146381 -10.5625 74.5625 C-11.24054688 74.90087891 -11.91859375 75.23925781 -12.6171875 75.58789062 C-35.5435521 86.85493482 -62.92609421 88.77315829 -87.20751953 80.70410156 C-98.476037 76.46292211 -107.34664789 71.03771537 -114.8125 61.5 C-115.28945313 60.89414063 -115.76640625 60.28828125 -116.2578125 59.6640625 C-123.34026292 49.61292029 -124.11292288 36.19115956 -122.34375 24.3671875 C-119.61979552 11.68782796 -112.46301506 1.95535186 -101.82421875 -5.3125 C-97.6681921 -7.76576622 -93.25426161 -9.63148602 -88.8125 -11.5 C-88.47798828 -11.65017578 -88.47798828 -11.65017578 -86.78515625 -12.41015625 C-60.0528352 -23.65694671 -22.96608357 -16.48711963 0 0 Z " fill="#B88850" transform="translate(771.8125,186.5)"/>
<path d="M0 0 C2.39672852 -0.36181641 2.39672852 -0.36181641 5 0 C6.6940918 1.50610352 6.6940918 1.50610352 8.19921875 3.62890625 C8.76382813 4.40967529 9.3284375 5.19044434 9.91015625 5.99487305 C10.49667969 6.84218994 11.08320312 7.68950684 11.6875 8.5625 C12.30109375 9.42206299 12.9146875 10.28162598 13.546875 11.16723633 C17.68915506 17.00610004 21.73167143 22.91963515 25.62768555 28.92602539 C27.61752469 31.98892614 29.68697926 34.94845573 31.89453125 37.859375 C35.15187261 42.15595355 38.17198428 46.59431801 41.1875 51.0625 C45.66951812 57.66514638 50.26657155 64.15289415 55.03027344 70.55444336 C58.75028083 75.58437988 62.23887792 80.74956975 65.65307617 85.99121094 C67.43625087 88.71739985 69.22628471 91.2643126 71.34765625 93.7421875 C71.89292969 94.48726563 72.43820312 95.23234375 73 96 C72.67 96.99 72.34 97.98 72 99 C69.10259378 99.13539281 66.21154379 99.23426829 63.3125 99.3125 C62.49587891 99.35439453 61.67925781 99.39628906 60.83789062 99.43945312 C56.56008716 99.52604834 54.63478244 99.48782596 51.1484375 96.80859375 C49.12421997 94.16238938 47.15964719 91.52279623 45.3125 88.75 C42.21531632 84.10765816 42.21531632 84.10765816 40 83 C37.65252456 82.88713048 35.30178172 82.84057976 32.95166016 82.82299805 C32.58896782 82.81971245 32.58896782 82.81971245 30.75352478 82.80308533 C28.34870302 82.78334519 25.94394368 82.77168899 23.5390625 82.76171875 C22.71844707 82.75764322 21.89783165 82.7535677 21.05234909 82.74936867 C16.71003215 82.72850614 12.36774685 82.71420451 8.02539062 82.70483398 C3.53712328 82.69376137 -0.95064939 82.65935259 -5.43874168 82.61966228 C-8.88740979 82.5935381 -12.3359592 82.58514598 -15.78471756 82.58155251 C-17.4393511 82.57667663 -19.093979 82.5650342 -20.74851608 82.54651451 C-23.06370204 82.52220829 -25.37759705 82.52307162 -27.69287109 82.5300293 C-28.35159714 82.52709618 -28.35159714 82.52709618 -31.68515015 82.51225281 C-36.7234452 83.25358782 -38.14773553 85.88209466 -41.10546875 89.76171875 C-41.79253906 90.72722656 -42.47960937 91.69273437 -43.1875 92.6875 C-46.93055556 97.93055556 -46.93055556 97.93055556 -48 99 C-49.34267413 99.08631874 -50.68974322 99.10706473 -52.03515625 99.09765625 C-52.84404297 99.09443359 -53.65292969 99.09121094 -54.48632812 99.08789062 C-55.33646484 99.07951172 -56.18660156 99.07113281 -57.0625 99.0625 C-57.91650391 99.05798828 -58.77050781 99.05347656 -59.65039062 99.04882812 C-61.76695663 99.03700373 -63.88348685 99.01906769 -66 99 C-66.61303711 97.19165039 -66.61303711 97.19165039 -67 95 C-65.60828667 92.64039965 -64.2199466 90.5958847 -62.5625 88.4375 C-62.10311035 87.81762207 -61.6437207 87.19774414 -61.17041016 86.55908203 C-60.23253608 85.29482128 -59.28950014 84.03437325 -58.34130859 82.77783203 C-56.49359049 80.32878157 -54.68263569 77.85373397 -52.875 75.375 C-52.22660156 74.48683594 -51.57820312 73.59867187 -50.91015625 72.68359375 C-48.98055239 69.9726779 -47.13968458 67.21832998 -45.3125 64.4375 C-41.98687596 59.39730326 -38.4955131 54.50340285 -34.9375 49.625 C-29.91664166 42.74051718 -25.07957746 35.74981465 -20.3125 28.6875 C-15.42084026 21.44414091 -10.40419304 14.39096985 -4.953125 7.55859375 C-3 5 -3 5 -1.546875 2.16015625 C-1.29164063 1.80373047 -1.29164063 1.80373047 0 0 Z M0.07763672 31.7355957 C-1.84357037 33.82950824 -3.56063293 35.94190021 -5.2421875 38.23046875 C-5.83386719 39.03419922 -6.42554688 39.83792969 -7.03515625 40.66601562 C-7.33873047 41.08206055 -7.33873047 41.08206055 -8.875 43.1875 C-9.47441406 44.00025391 -10.07382812 44.81300781 -10.69140625 45.65039062 C-12.47915544 48.08770161 -14.24399952 50.53973437 -16 53 C-16.29986816 53.41483643 -16.29986816 53.41483643 -17.81738281 55.51416016 C-18.37522461 56.30999512 -18.93306641 57.10583008 -19.5078125 57.92578125 C-20.01199707 58.63774658 -20.51618164 59.34971191 -21.03564453 60.08325195 C-21.35388184 60.71577881 -21.67211914 61.34830566 -22 62 C-21.67 62.99 -21.34 63.98 -21 65 C-5.49 65 10.02 65 26 65 C26.33 64.01 26.66 63.02 27 62 C25.86352539 59.79858398 25.86352539 59.79858398 24.09765625 57.24609375 C23.45376953 56.30830078 22.80988281 55.37050781 22.14648438 54.40429688 C21.45876953 53.42525391 20.77105469 52.44621094 20.0625 51.4375 C19.40958984 50.48552734 18.75667969 49.53355469 18.08398438 48.55273438 C8.8385682 35.19824434 8.8385682 35.19824434 4 30 C2 30 2 30 0.07763672 31.7355957 Z " fill="#B88850" transform="translate(890,170)"/>
<path d="M0 0 C0.67395813 -0.00365067 1.34791626 -0.00730133 2.04229736 -0.01106262 C4.26275128 -0.0191436 6.4824691 -0.00556913 8.70288086 0.0090332 C10.25882466 0.00955253 11.81476912 0.00903202 13.37071228 0.00752258 C16.63314609 0.00761223 19.89533243 0.01801714 23.15771484 0.03613281 C27.30756945 0.05868747 31.45705858 0.05938714 35.60695744 0.05261517 C38.82349299 0.04924512 42.0399477 0.05596398 45.25646782 0.0657444 C46.78443412 0.06955462 48.3124095 0.07076226 49.84037971 0.06915855 C66.63658401 0.06621381 80.42099917 1.43835743 93.10522461 13.37231445 C99.99255349 21.66941641 101.82976228 29.7405117 101.10522461 40.37231445 C99.78092749 48.18566747 95.37742696 53.81830002 89.23022461 58.62231445 C81.7667536 63.81429429 75.1331911 66.11105443 66.10522461 67.37231445 C66.44426509 70.13912695 66.89093947 71.18305852 69.01147461 73.0559082 C69.86741211 73.63469727 70.72334961 74.21348633 71.60522461 74.80981445 C76.86021254 78.4696615 81.96757925 82.27905993 87.04272461 86.18481445 C88.48925014 87.29560751 89.93586029 88.4062904 91.38256836 89.5168457 C91.69319214 89.75584595 91.69319214 89.75584595 93.26513672 90.96533203 C94.58873054 91.97738871 95.95226722 92.93796664 97.33789062 93.86328125 C97.92111084 94.36126221 98.50433105 94.85924316 99.10522461 95.37231445 C99.10522461 96.36231445 99.10522461 97.35231445 99.10522461 98.37231445 C95.41069105 100.21958123 91.04708572 99.64337225 86.98022461 99.68481445 C86.51745117 99.69931641 86.51745117 99.69931641 84.17553711 99.77270508 C74.62827857 99.86035646 68.74277141 96.27269451 61.54272461 90.37231445 C60.95338135 89.89955078 60.36403809 89.42678711 59.75683594 88.93969727 C58.509167 87.93788333 57.26400497 86.93294006 56.02124023 85.92504883 C53.43345752 83.82791605 50.83106343 81.74929411 48.22900391 79.66992188 C46.94331367 78.64230992 45.65831397 77.6138334 44.37402344 76.58447266 C38.86633452 72.17065286 33.31087408 67.82216039 27.70288086 63.53637695 C26.9075293 62.92536133 26.11217773 62.3143457 25.29272461 61.68481445 C24.93887695 61.41475586 24.93887695 61.41475586 23.14819336 60.0480957 C20.98957413 58.2774501 19.04757235 56.37576976 17.10522461 54.37231445 C17.43522461 53.38231445 17.76522461 52.39231445 18.10522461 51.37231445 C18.69102798 51.36644821 19.27683136 51.36058197 19.88038635 51.35453796 C25.9967423 51.2904305 32.11258051 51.20596644 38.22851562 51.10986328 C40.50871947 51.07668079 42.78900414 51.04862822 45.06933594 51.02587891 C48.35378342 50.99221063 51.63749475 50.93988719 54.92163086 50.8840332 C55.93544327 50.87764328 56.94925568 50.87125336 57.99378967 50.8646698 C64.67264131 50.72702613 69.53114423 49.88326329 75.10131836 45.9699707 C78.5344826 42.31351122 79.58444476 39.40378196 79.85522461 34.37231445 C79.57781113 29.44668406 78.74140293 26.19857283 75.04319763 22.83015442 C68.02092415 17.54765006 59.36108346 17.96917965 50.97631836 18.0793457 C49.74607437 18.08359055 48.51583038 18.08783539 47.24830627 18.09220886 C43.34621645 18.10890679 39.44465649 18.1465437 35.54272461 18.18481445 C32.88583113 18.20157642 30.22894263 18.21355906 27.57202148 18.22583008 C21.08291056 18.25878127 14.59410546 18.30889208 8.10522461 18.37231445 C8.09935837 19.35759125 8.09349213 20.34286804 8.08744812 21.35800171 C8.03031513 30.62871134 7.95760349 39.89918427 7.8695097 49.16965294 C7.82472032 53.93608293 7.78548339 58.70242574 7.75878906 63.46899414 C7.73284116 68.06623654 7.69250004 72.663145 7.64203835 77.26018143 C7.62531176 79.01687095 7.61383368 80.7736183 7.6076107 82.53037643 C7.59803212 84.9850467 7.57004992 87.43885137 7.53759766 89.89331055 C7.53903275 90.62482834 7.54046783 91.35634613 7.54194641 92.11003113 C7.50395203 94.13265991 7.50395203 94.13265991 7.10522461 97.37231445 C3.79484721 99.57923272 2.59956775 99.66891304 -1.26977539 99.68481445 C-2.20563477 99.70157227 -3.14149414 99.71833008 -4.10571289 99.7355957 C-7.60410693 99.27992253 -9.19819819 98.6848886 -11.89477539 96.37231445 C-12.40664146 93.25137068 -12.57879672 90.668757 -12.54174805 87.54223633 C-12.55050964 86.63953506 -12.55927124 85.7368338 -12.56829834 84.80677795 C-12.59033628 81.81772032 -12.57572399 78.83013757 -12.55883789 75.84106445 C-12.56220476 73.76745316 -12.56705629 71.69384378 -12.57333374 69.62023926 C-12.58071104 65.27226999 -12.56997174 60.92481396 -12.54663086 56.5769043 C-12.5181429 50.99763897 -12.53454224 45.4195761 -12.56449318 39.84035492 C-12.58254284 35.55782984 -12.57681879 31.27559085 -12.56385422 26.99305725 C-12.56051376 24.93571328 -12.56462965 22.87834351 -12.57625198 20.82102966 C-12.58892219 17.94744874 -12.56963753 15.07582715 -12.54174805 12.20239258 C-12.5518692 11.34827286 -12.56199036 10.49415314 -12.57241821 9.614151 C-12.5296936 7.24353027 -12.5296936 7.24353027 -11.89477539 3.37231445 C-8.33399158 -0.05190942 -4.78416477 -0.00248044 0 0 Z " fill="#B88850" transform="translate(399.894775390625,170.627685546875)"/>
<path d="M0 0 C0.52013672 -0.01417969 0.52013672 -0.01417969 3.15234375 -0.0859375 C6.91000548 0.50923577 7.81511875 1.3144178 10.0625 4.375 C10.45186414 7.41681026 10.5995475 10.09451666 10.56420898 13.13500977 C10.56961197 14.01834991 10.57501495 14.90169006 10.58058167 15.8117981 C10.59308471 18.73034207 10.57656879 21.64790272 10.55859375 24.56640625 C10.55874869 26.59374544 10.56023679 28.62108493 10.56300354 30.64842224 C10.56438819 34.89620057 10.55181713 39.14364152 10.52905273 43.39135742 C10.50064994 48.84143593 10.50340951 54.29095451 10.51614285 59.74107456 C10.52309059 63.92661845 10.51532139 68.11203243 10.50288582 72.29755974 C10.49836379 74.30744873 10.49804105 76.31735162 10.50195122 78.3272419 C10.50485502 81.13324813 10.48839701 83.93847669 10.46655273 86.74438477 C10.47105438 87.57823196 10.47555603 88.41207916 10.48019409 89.27119446 C10.40686837 94.92745172 10.40686837 94.92745172 8.74359226 97.08907986 C6.01218048 99.17842231 3.35967705 98.73266629 0 98.6875 C-1.24910156 98.68363281 -2.49820313 98.67976563 -3.78515625 98.67578125 C-6.9375 98.375 -6.9375 98.375 -8.9375 96.375 C-9.14161369 93.40317161 -9.22063847 90.52415018 -9.2121582 87.55078125 C-9.21726913 86.63686615 -9.22238007 85.72295105 -9.22764587 84.78134155 C-9.24158536 81.74999507 -9.24058199 78.71887479 -9.23828125 75.6875 C-9.24216548 73.58764562 -9.24649958 71.48779202 -9.25126648 69.38793945 C-9.25873785 64.98288427 -9.25843055 60.57790921 -9.25317383 56.17285156 C-9.24737474 50.51639825 -9.26431648 44.8602719 -9.2875185 39.20387268 C-9.30221974 34.86655751 -9.30313253 30.52932176 -9.30000877 26.19198608 C-9.3005237 24.10589957 -9.30579331 22.01980881 -9.31582069 19.93374634 C-9.32809946 17.0220182 -9.32144541 14.11093585 -9.30981445 11.19921875 C-9.31745819 10.33058197 -9.32510193 9.46194519 -9.33297729 8.56698608 C-9.3117218 6.1706543 -9.3117218 6.1706543 -8.9375 2.375 C-5.51828453 0.09552302 -4.03439823 0.04986895 0 0 Z " fill="#B88850" transform="translate(799.9375,170.625)"/>
</svg>
